<?xml version="1.0" encoding="utf-8"?>
<!-- Generator: Adobe Illustrator 16.0.0, SVG Export Plug-In . SVG Version: 6.00 Build 0)  -->
<!DOCTYPE svg PUBLIC "-//W3C//DTD SVG 1.1//EN" "http://www.w3.org/Graphics/SVG/1.1/DTD/svg11.dtd">
<svg version="1.1" id="Layer_1" xmlns="http://www.w3.org/2000/svg" xmlns:xlink="http://www.w3.org/1999/xlink" x="0px" y="0px"
	 width="679.493px" height="650.415px" viewBox="0 0 679.493 650.415" enable-background="new 0 0 679.493 650.415"
	 xml:space="preserve">
<path d="M270.072,162.969h-41c0,0,1.5-60.5,3.5-70s5-50,23-63s46-25,57.5-27.5s58-4,66,0s39.5,16.5,47,22s24,33.5,27,47s0,52,0,52
	s-12.5,1.5-16-0.5s-17.5-5-22.5-4.5s-26.5,4-31,7.5s-24.5,24.5-30.5,29.5s-16.5,10-16.5,10s-34.5-30-41-34s-31-15-33.5-15
	s-13-5.5-12,4s5.5,21.5,8.5,27S270.072,162.969,270.072,162.969z"/>
<path d="M328.072,165.469c0,0-27-22.5-28.5-23.5s-15-12.5-24-14.5s-18.5-6.5-18.5-6.5s1-2,0,3.5s5,20,9.5,24s15.5,16.5,19,17
	S328.072,165.469,328.072,165.469z"/>
<path d="M365.072,153.469c0,0,18-20,27-24s13.5-5,23-3s17,3,22.5,4s9.5,0.5,13,0s3.166,0.5,3.833,3.5s-3.833,7.367-6.833,9.184
	s-36.5,5.816-40.5,7.816S371.368,156.76,365.072,153.469z"/>
<path d="M384.072,161.969c0,0,14-3.5,18-3s19.5,1.402,29.5-0.049s23-5.951,31-6.451s32.5-3.5,37.5,4.75s7,6.75,3.5,11.75
	s-6,7.5-11,9.5s-3.5,3-10,4s-31.738,7-37.869,6.5s-12.631,0.029-12.631,0.029s-16.6-16.94-22.3-18.735
	S384.072,161.969,384.072,161.969z"/>
<path d="M318.572,172.469c0,0-5.5,6-7,6.5s-24.5-1-33,0s-34.5,9-42,15s-30.5-3.941-33.5-4.971s-26-18.029-28.5-23.529s-5.5-7.5,0-8
	s10.5-2.5,16.5,0s21,6.5,26,8s14,5.589,22,4.794s34,0.794,38.5,0S318.572,172.469,318.572,172.469z"/>
<path d="M328.072,176.06c0,0-14,18.734-20,19.822s-16,5.087-19,7.587s-21,15-21.5,18.5s-7.5,15-7.5,15s14,3.5,21,0
	s24.5-12.5,29.5-16s12.5-19,13-22.5S328.072,176.06,328.072,176.06z"/>
<path d="M318.572,223.969c0,0,6.5-12.5,9.5-24s7-23.909,7-23.909s4.333,13.234,6.667,19.822s4.167,17.587,0,21.087
	S318.572,223.969,318.572,223.969z"/>
<path d="M341.738,170.264c0,0,29.333-4.706,42.333,0s30,10.206,33.5,13.206s14.5,19.5,15,21.5s-8,2-12.5,0s-29.312,0-32.906-3
	S339.822,178.792,341.738,170.264z"/>
<path d="M304.572,187.321c0,0-27,0.352-34.5,0s-21,2.648-23,5.648s-10.5,14.5-11,17s-3,0.5-3.5,0s1-8-3.5-7.5s-7-1.5-8.5,1
	s-5,5.962-4.5,7.731s1.5,45.269,3,51.769s2.5,35.5,7,41.5s10.5,10.5,14,14s13.279,32,16.89,37.5s12.61,12.5,15.11,15.5
	s28.5,39.5,56,44s33-1,43-3s20-12,26.5-18s28.5-33,29-40.5s1.543-50.452,6.021-51.726s4.979-3.774,8.979-3.274s0.5,6,4,0.5
	s10-66,11-69.5s3-23,0-26s-7.5-5.909-9.5-3.955s-5.5,3.545-5,0s2.631-7.545,2.631-7.545h-8.631c0,0,2.5,6.5,2,11s-3.457,8.5-5.479,8
	s-21.021-2-27.021-2s-35-6.909-37.5-9.455s-23.849-17.545-23.849-17.545s9.849,20.146,6.849,24.823s-6.849,11.177-6.849,11.177
	s11.349,0.5,18.349,2.5s32,16.5,36,50.5s-7,56.5-14.5,61.5s-25.198,16-39.849,13.5s-44.651-4-50.151-10s-24.5-43.5-23.5-49
	s-1.5-34,1.5-36s4-6,4-6s-9.5,0.5-12.5,0s-6.61-4-6.61-4s-4.39,2-2.39-6s8.5-20,12-23s15.89-13.175,25.945-16.587
	S304.572,187.321,304.572,187.321z"/>
<path d="M284.072,303.469c0,0-7.5-19.5-7-27s-1.524-23.5,3.488-27.5s6.512-10.889,9.512-10.444s12.5-5.556,17.5-6.556
	s18.15-4,23.825-4s9.675,1.5,16.175,0s8.5-2.5,14.5,0s6.5,0.5,10,6.5s22.5,23,20.5,47s-2,37-8.5,43.5s-32.877,16-49.188,14
	s-38.812-8.5-40.812-12S284.072,303.469,284.072,303.469z"/>
<path d="M268.572,380.469c0,0-0.5,51.5,0,60s5.452,33.5,8.476,37.5s26.524,75,27.524,86s3.5,32.5,3.5,32.5s9.5-42.5,9-51.5
	s2-21.5,3.5-25.5s6-8.5,7.5-13.5s-3.5-22.5-5.5-28s2-33.5,5.5-39s3-13,3-13s-56.645-32.252-60-45.5S268.572,380.469,268.572,380.469
	z"/>
<path d="M342.572,427.469c0,0,13.5-0.5,21.5-4s24.795-13.5,28.647-16s10.353-11,13.353-16s8.563-17.068,9.869-18.861
	s1.306-1.793,1.306-1.793s-0.825,3.154,0,7.154s6.325,46.5,3.325,49.5s-13,31.5-13.5,36s-19,75.5-21.5,82.5s-11,40-11,40
	s-5-31.5-6-38.5s-6-25-7-30s-5-13.5-3.5-17s4-8.5,5.5-12s1.5-6.654,1-10.077s-8.5-22.923-8.5-22.923L342.572,427.469z"/>
<path d="M334.883,433.969c0,0-8.812,29.5-8.312,35s3.05,12.112,4.525,16.556s5.598,8.444,3.787,12.944s-4.312,16-6.312,19
	s-8.5,33-7.5,38s-7.5,53-9,55.5s15,37.5,15,37.5h24.5l19-52c0,0-3.5-10.5-4-19.5s-14.5-62-14.5-65s-2.5-19.5,0.5-23.5
	s4.5-6.654,4.5-10.077s-10-27.423-10.5-29.923S334.883,433.969,334.883,433.969z"/>
<path d="M427.572,362.469l-2.5,8.346l2.5,52.654c0,0-8.5,23-10,29s-21.5,81.5-22,85s-18,54.5-18.5,59s-16.5,52-16.5,52
	s101.5-1.5,127.5,0s35.5,3.5,46.5,0s66.5-3.5,74-5.5s27.5-8.5,40.5-8.5s16.5-0.5,21.5-5.5s10.5-33,8.5-43s-25.5-68-34.5-76
	s-68.5-34.5-87-41.5s-78-37-87-45S427.572,362.469,427.572,362.469z"/>
<path d="M257.572,365.969l3.5,4.846c0,0-1.5,56.654,0,65.154s9.5,38.112,12.5,49.556s17.5,67.944,19,71.944s8.5,43,9.5,49
	s16,42,16,42l-207.5-5c0,0-76.5,2.5-83,1s-29-3-27.5-25.5s12.5-98.5,27-108.5s55.5-42,72.5-49s71-24.5,81.5-27.5s50-30,57-35
	S257.572,365.969,257.572,365.969z"/>
<path fill="#FFFFFF" d="M311.976,248.969c0,0-5.904-1.5-9.904,2.5s-9,4.5-8,9s-6,3.5,0,8s5.446,3.5,7.723,2s3.777-5,4.777-7.5
	s0.5-5.5,2-7.5S311.976,248.969,311.976,248.969z"/>
</svg>
