<?xml version="1.0" encoding="utf-8"?>
<!-- Generator: Adobe Illustrator 16.0.0, SVG Export Plug-In . SVG Version: 6.00 Build 0)  -->
<!DOCTYPE svg PUBLIC "-//W3C//DTD SVG 1.1//EN" "http://www.w3.org/Graphics/SVG/1.1/DTD/svg11.dtd">
<svg version="1.1" id="Layer_1" xmlns="http://www.w3.org/2000/svg" xmlns:xlink="http://www.w3.org/1999/xlink" x="0px" y="0px"
	 width="435.324px" height="289.498px" viewBox="0 0 435.324 289.498" enable-background="new 0 0 435.324 289.498"
	 xml:space="preserve">
<path stroke="#000000" stroke-miterlimit="10" d="M118.658,56.455c0,0,8.5-11.833,11.833-14.833s22.166-22.167,24.833-23.833
	s14.333-11.833,14.333-11.833s6.5-6.742,8.333-5.955s3.167,1.788,3,2.788s0.333,1.5-0.833,2.833s-2.833,1.667-3.833,2.5
	s-9.833,7.833-11.833,9.667s-18.5,15.5-20,17.167s-10.167,10.667-11.333,14s-2.833,7.5-1.333,9.5s2.167,2.333,4.833,2.333
	s3,0.333,6.167,0s4.848-0.5,7.007-0.667s0.993-0.333,5.16-0.167s7.833,1.295,11,0.981s4-0.409,6.333,0.055s5,1.297,8,1.964
	s8.5,1.333,10.5,1.5s4-1,7.667,0s3.667,0.333,7,1.167s5.166,0.167,6.333,1s1.666,1.667,4.5,3.5s2.666,1.667,4,3.667s3,2,3.667,4
	s1,2.167,1,3.167s1,2-1,1.167s-2.333-0.667-3.5-1.167s-2.833-1.667-4.5-1.667s-2.833-0.167-6.833,0s-15.833-0.5-19.333-0.333
	s-16.667,0.5-18.667,0.5s-19.833-2.334-22.667-2.167s-10.334,0-13.667,0.5s-18.5,4.167-20.667,5.5s-16.999,13.834-19.332,14.5
	s-15.667,10.167-19.667,11.5s-21.666,10.166-26.333,12.833s-20.833,12.667-22.833,13.333s-13.833,5.5-14.833,5.667
	s-6.666-1-8.333-3.833s-3.333-10.5-2-12s1.166-2.333,2.833-3s3.167-1.167,5.167-1.5s17.333-7.167,19.667-7.667
	s14.5-6.834,16.833-8.167s6.833-4.667,9-5.5s11.5-6.166,13.167-6.333s18-6.833,22.333-8.333s15.667-9.167,18.167-12
	S118.658,56.455,118.658,56.455z"/>
<path stroke="#000000" stroke-miterlimit="10" d="M340.826,54.454c0.834-0.333,2.833,0.167,5,0s7.834,1.5,11.334,2
	s9.166,0.167,12.666,0s7.667-0.354,10.667-0.927s10.834-0.26,15.667,0s5.666,1.455,9.833,1.191s6.333-1.08,9-1.172
	s9.667-2.258,11.167-1.925s1.5-1.402,2.833-0.035s1.833,1.972,2.333,3.17s0.833,0.864,1.5,2.698s1,1.833,1.167,2.833s2,1,0,1.667
	s-1.333-0.5-3.5,0s-5.667,0.257-10,0.212s-14.334,0.909-18.167,0.099s-14.666-0.534-18.166,0.328s-17.667,0.529-21.167,1.695
	s-15.666,5.167-17.333,4.833s-6.834-4.167-7.167-6.167s0.167-9.167,0.667-9.5S340.826,54.454,340.826,54.454z"/>
<path stroke="#000000" stroke-miterlimit="10" d="M312.326,51.121c0.5-0.667,1-2.5,3.167-2.667s4.333-1.167,6.833-1
	s4.667,1.647,6.167,1.824s3.167,0.843,4,1.843s4.834,10.667,4.667,16.833s-0.49,14.166,0.005,15.333s-0.387,10.834,1.221,12.667
	s1.106,9.5,1.44,11.833s2.166,12.667,1,15.5s-3.332,20.833-3.166,23.667s-3.001,15.333-2.834,18.167s-2.5,21.999-7.333,35.666
	s-11.501,26.666-12.667,29.833s-4.5,14.334-2.5,21.334s2.5,10.499,2.667,13.833s0.833,9.167-2.167,13.667s-7,6.956-10.5,8.5
	s-9.167,1.499-12.5,0.833s-10.332-2.666-12.166-5.833s-13.668-21.834-16.668-26.5s-16.332-22.166-17.166-25.833
	s-6.333-21.499-6.5-23.333s-4.333-37.501-3-51.834s-0.334-56.499-3.667-67.666s-4.333-21.333-16.333-24.833c-12-3.5-13-2.167-15-2
	s-6.5,1.667-5.833,0.167s0.833-2.667,2.833-3.167s10-4.637,13.167-4.901s9-1.765,11.833-1.098s5.999,1.667,7.166,2.5
	s12.668,14.167,17.334,42.333s4.5,58.501,4.5,61.167s-1.501,46.499,0.666,51.499s7.668,21.833,8.834,22.833s12,13.334,13.833,15.667
	s3.334,6.666,5.167,8.833s6.999,10.166,10.166,11.333s7.5,5.334,9,2.667s3.834-7.667,3.334-11s-3.334-14.501-3.334-17.167
	s-3.332-14.333,2.834-26.333s12.999-18.5,15.666-23.5s10.167-37.666,12.167-41.499c2-3.833,3-17.667,3.5-25.5
	s-1.499-42.333-2.333-47.167s-0.834-17.167-8.334-21.667S312.326,51.121,312.326,51.121z"/>
<path stroke="#000000" stroke-miterlimit="10" d="M232.826,54.289c0,0,3-0.833,6,0s10.499,2.167,14.666,2.833s11.168,1,19.334,1
	s17.166-1.667,20.833-3s7.167-2.075,10.667-1.204s6.5,1.538,9.5,3.204s6.666,6.333,7.166,8s2.167,13.666,2.667,16.833
	s2.334,11.5,3.167,14.833s2.167,19.5,2.5,21.833s-1.668,20.833-2.834,23.833s-6.333,19.5-5.833,22s-2.499,14.5-3.833,16.666
	s-6.334,10.834-7.834,13.5s-7.166,9.833-8.833,12.666s-5.167,11.166-5.667,14.666s-1.832,14.834,0.334,21.167
	s3.166,11.999,3.166,15.333s0.833,8-1,8.667s-3.334-1.333-7-4.833s-17-21.834-19.833-24.667s-12.166-20.667-12.833-23.5
	s-5-18.001-4-19.667s2.166-18.501,2.333-23.167s-2.166-58-2.833-61.5s-5.333-31.833-7.5-35.5S231.826,55.624,232.826,54.289z"/>
<path fill="#FFFFFF" d="M281.063,74.287c0,0-0.237-2,2.263-1.667s3.499-0.333,3.666,1.667s-0.167,2,0,4.167s-0.071,1.5,0.048,5
	s0.785,20.167,0.952,23.667s2,9.833,0,14.333s-2.175,13.167-3.004,15.667s-2.496,12.667-1.996,14.667s-0.333,5.667,1.167,7
	s3.333,2.667,3,4.5s-1.675,7.167-2.171,9.167s-1.663,9.332-1.496,10.666s-0.333,7.5-0.333,10s1.334,5.001,0.667,6.334
	s-0.166,2.166-2,2.166s-3.168-0.5-3.834-1.333s-0.667-2.834,0-4.167s1.834-8.5,2.167-9s2.166-7.166,1.833-10.333
	s-3.5-9.334-4.5-10.167s-3.166-5.616-2.666-6.225s2.166-2.274,2.833-2.941s1.667-4.834,2.167-7.334s0.809-12.167,1.237-15.667
	s2.597-16.833,2.763-21.667s0.667-18.333-1-23.833S281.063,74.287,281.063,74.287z"/>
<path stroke="#000000" stroke-miterlimit="10" d="M162.074,97.204c0,0,0.5-13.5,2.75-14.25s4.5-2.5,6.75-2s7.75,1.25,11,1.75
	s8.953-1.5,10.852-0.75s11.148-0.25,15.398,0.25s11.5-0.75,13.75,1.25s6.75,12,6.75,13.75s-0.25,22.5,0,25.75s-0.25,31.5,0,34.75
	s0.5,25,1.5,28s1.129,20.25,1.939,23s0.311,4.25,1.561,7.25s3.75,5.25,3.25,7.25s-0.25,2.5-2.75,3.25s-3.5,0.75-4.25,2s-2,1.5-1,3
	s1.879,2.5,3.189,3.25s2.061,0.75,3.311,1.5s2.75,1.5,3.5,2.5s3.75,1,3.5,4.25s0,5-1.75,7.5s-3.871,4.75-8.561,6.75
	s-15.689,2.25-20.439,1.5s-11-3.5-14.25-7.25s-4.5-8.5-2.75-10.5s5.015-5.25,7.257-6.5s3.993-2.25,4.743-2.75s1.25-0.25,1.5-1.75
	s-0.25-3-3-3.5s-12.25-6-15.25-9.5s-10-17-9.75-18.25s-13.75-39.75-14-43.25s-4.75-26-4.75-26.75S162.074,97.204,162.074,97.204z"/>
</svg>
