<svg id="Layer_1" data-name="Layer 1" xmlns="http://www.w3.org/2000/svg" viewBox="0 0 1265.99 365.33"><title>Artboard 1</title><path d="M2.23,224.35C8,211,22.07,203.88,50.15,189.59c0,0,28.83-14.54,72.34-24.9,33.33-7.94,31.8-2.35,53.56-9.4,26.9-8.71,28.5-16.25,64.35-29.12C259.22,119.41,263,120,277.51,113c19.67-9.44,23.7-15.76,38.05-22.08,14.74-6.49,26.7-7,50.27-7.52,71-1.68,106.8-2.39,121.2,3.76,16.93,7.23,20,13,48.85,25.37,19.88,8.47,25,8.49,40.4,16.91,20.48,11.15,32.38,22.45,40.4,32.41,4.64,5.76,18.15,22.53,13.15,30.07-2.76,4.16-10.11,3.87-13.15,3.75-5.94-.23-12.86-2.39-26.31-13.62-16-13.41-13.87-16.75-23.48-22.08-9.12-5.05-18.07-5.92-29.6-7.05-14.13-1.37-15.72,1-26.31-1.4-13.14-3-13.76-7.4-22.07-7-12.2.51-16.85,10.2-24,7.52-6.91-2.62-8.09-13.89-8.93-13.63s-.3,10.49,5.64,20.2c5.72,9.35,13.92,14,19.26,16.91,16.45,9,21.73,3.54,34.29,12.22,2.94,2,7.75,7.61,17.38,18.79s11.61,14.78,10.81,18.32c-1.13,5-7.1,8.23-11.75,9.39-10.69,2.68-18-4.85-34.76-13.62-5.58-2.92-8.49-4.16-11-5.25a185.24,185.24,0,0,0-35-11.19c-5.2-1.11-7.81-1.61-11.65-2.12-10.18-1.35-14.51-.5-24.06-4-4.58-1.67-22.18-8.67-34.29-25.83-13.09-18.56-13.36-40.12-21.14-40.4-1,0-3.88.21-4.7,1.87-.94,1.95,1.38,4.87,2.35,6.11,4.51,5.79,15.62,20.05,13.16,25.84-1.25,2.92-5.42,2.45-10.81,4.23-12.59,4.15-18.5,16.16-23,23.48-4.67,7.59-16.27,17.9-39.46,38.52-22.44,20-30.5,20.32-67.17,45.1-34.83,23.53-34.81,28.11-55.9,41.81-9.85,6.4-40.33,17.15-100.53,39,0,0-17.86,6.48-53.09,7.52-5.93.17-14.72.17-18.32-5.17S2.06,347,3.64,342.73c2.83-7.55,2.67-23.67,2.35-55.9C5.55,241.61-4.3,239.35,2.23,224.35Z"/><path d="M486.09,220.59c2.34-1.45,6.1,6.47,18.32,11.27,8.27,3.26,13.18,2.24,14.56,5.64,1.49,3.66-2.2,9.7-7.05,11.75-7.81,3.3-16.41-4.77-17.85-6.11C485.66,235.25,483.31,222.31,486.09,220.59Z"/><path d="M580,238.44c-3.13,3-10.82-.72-11.27-.94-6.85-3.37-8.38-9.51-13.63-19.26-4.43-8.25-9.72-18.08-19.26-25.84-7.84-6.38-16.66-9.81-21.61-11.74-4-1.55-3.15-.92-16-5.17-11.54-3.82-16.11-5.62-21.14-8.92s-9.81-6.45-9.39-9.87c.54-4.38,9.54-7.48,16.91-7.51,6.46,0,8.91,2.31,17.38,4.69,5.93,1.67,8.34,1.54,21.14,2.82,19.15,1.93,28.72,2.89,32.41,4.23,12.23,4.46,19.15,13.17,27.72,24,0,0,10.55,13.28,16.44,35.23.72,2.7,1.8,7.23-.47,11.27-2.42,4.3-8.18,7.24-11.74,5.64-3.11-1.39-3.84-5.88-4.23-8,0,0-2.67-14.15-14.09-31.48,0,0-10.79-16.34-29.28-23.91l-1.26-.52s-.09,4.89,1.88,7.52c1.74,2.34,4.9,2.63,6.11,2.82,6.93,1.11,12.46,9,18.32,17.38C566.12,202.45,586.67,232.15,580,238.44Z"/><path d="M1197.78,4.5c-1.23-2.74-5.25-4.57-26.58-4.5-19.12.07-28.69.1-41.54,2.62-10.44,2-19.78,4.93-41.81,14.09-32,13.31-32.2,15.5-54,24.43-19.14,7.83-40.81,16.7-70,22.08-16.58,3.06-21.89,2.47-35.7,7-17,5.63-20.86,10.48-40.4,19.26-14.5,6.51-25.19,9.61-45.56,15.5-30.69,8.87-31.82,6.37-53.56,13.62-26.72,8.92-25.32,12.81-46,17.85-12.34,3-10.71,1.11-45.57,7.05a242.14,242.14,0,0,0-38.52,10.8c-12.37,4.54-18,7.7-18.79,12.69-1.07,6.36,6.19,12,7,12.68,6.56,5,16.78,5.82,19.73,1.88,2.4-3.21-1.09-8.15,1.88-10.8,1.65-1.49,4.66-1.65,5.63-.47,1.57,1.89-3.15,5.95-1.88,8.45,2.29,4.5,22.73,1.62,24.9-6.11.81-2.88-1.09-5.87.94-8,1.33-1.39,3.81-1.83,4.7-.94,1.24,1.25-1.53,4.28-.47,6.11,1.3,2.24,7.06.32,14.56-.47,3.88-.41,14.13-1.14,24.43,2.82,3.89,1.49,9.08,3.56,9.86,7.51.6,3-1.5,6.21,0,7.52.78.68,2.05.43,2.79.25,7.89-1.89,16.47-9.65,16.47-9.65,12.52-11.3,10.65-9.19,13.16-11.74,6.48-6.6,13.76-15.38,14.35-17.09,0-.06.09-.29.21-.29.54,0,1.31,4.82,1.41,6.1.55,6.88-9.53,13.84-12.69,16-22.34,15.1-39,24.89-39,24.89-14.22,8.37-19.68,12-22.54,19.26-.47,1.18-4.15,10.86.47,16,4,4.41,12,2.95,17.38,1.87,4.14-.82,8.49-2.12,15.52-5.81a136,136,0,0,0,19.24-12.51c17.62-13.16,26.65-19.58,31-25.36,2.88-3.83,7.6-10.87,11.28-9.87a4.29,4.29,0,0,1,2.82,4.23c-.31,3.17-5.58,4.92-8.46,6.11-13.57,5.59-11.06,14-27.72,24.89-9.85,6.44-14.51,6-17.85,12.22a19,19,0,0,0-1.54,4.18,24,24,0,0,0,.13,11.79c3.27,14-10,39.56.47,49.32,4.36,4.07,11.92,5,16.45,2.35,3.85-2.26,5-6.83,6.1-12.21,4.08-20.22,4.07-37.55,4.7-37.58.44,0,.49,8.15,3.29,18.32,2.38,8.64,3.77,13.68,8.45,17.38a21.24,21.24,0,0,0,22.55,1.88A21,21,0,0,0,839.82,268c1.86-9.7-5.38-15.32-1.88-22.55.68-1.4,2.73-4.87,1.41-8a6.32,6.32,0,0,0-1.13-1.69c-2.21-2.6-5.21-3.42-9.13-4.58-2.38-.7-4.73-1.54-7.12-2.18-11-3-16.51-4.52-20.2-8-3.34-3.13-5.41-7.28-4.7-8s3.23,1.54,7.52,3.76c4.9,2.55,8.06,3.16,13.15,4.7,15.44,4.68,15.94,8.06,24.9,9.4,7.4,1.1,13.19-.29,17.85-1.41,15.24-3.67,25.15-12.48,35.7-22.08,9.81-8.93,16.07-14.63,22.55-24.43,7.21-10.9,11.34-21.84,20.2-23,.45-.06,4-.5,4.7.94,1.8,3.61-16.5,14.18-15,17.38,1.25,2.73,15.92-2,25.84-4.23,25.75-5.82,43.6-.41,65.77,2.82,16.76,2.45,45.31,1,102.4-1.88,34.19-1.72,62.46-4.17,94.9-15,12.27-4.11,25.92-9.68,36.17-23,2.88-3.75,16-20.9,11.27-41.34s-24.19-30.4-27.17-31.94c-14.93-7.71-22.47-2.45-35.31-12.21-3.46-2.64-14.24-10.84-14.56-22.08C1187.55,16.85,1200.5,10.59,1197.78,4.5Z"/><path d="M757.14,298.57c-4,1.8-9.89-1.21-12.68-5.17-3.43-4.85,0-10-.94-17.38-2.54-20-11.54-35.81-7-39,1.56-1.1,2.89.79,7.52.94,10.36.35,15.45-8.73,18.79-7,3.87,1.95-3.73,13.76-1.88,32.41,1,9.58,4,17.26.94,28.18C761,294.35,759.84,297.37,757.14,298.57Z"/></svg>