<?xml version="1.0" encoding="utf-8"?>
<!-- Generator: Adobe Illustrator 16.0.0, SVG Export Plug-In . SVG Version: 6.00 Build 0)  -->
<!DOCTYPE svg PUBLIC "-//W3C//DTD SVG 1.1//EN" "http://www.w3.org/Graphics/SVG/1.1/DTD/svg11.dtd">
<svg version="1.1" id="Layer_1" xmlns="http://www.w3.org/2000/svg" xmlns:xlink="http://www.w3.org/1999/xlink" x="0px" y="0px"
	 width="916.007px" height="264.354px" viewBox="-320.503 -1.65 916.007 264.354"
	 enable-background="new -320.503 -1.65 916.007 264.354" xml:space="preserve">
<title>Artboard 1</title>
<path d="M-318.891,160.678c4.175-9.66,14.354-14.809,34.672-25.148c0,0,20.86-10.521,52.341-18.016
	c24.115-5.746,23.01-1.701,38.754-6.803c19.462-6.301,20.62-11.758,46.559-21.068c13.616-4.891,16.353-4.465,26.852-9.529
	c14.231-6.832,17.147-11.402,27.529-15.977c10.666-4.695,19.319-5.064,36.373-5.441c51.372-1.215,77.274-1.729,87.692,2.721
	c12.25,5.232,14.473,9.406,35.346,18.357c14.383,6.127,18.09,6.143,29.23,12.234c14.818,8.066,23.428,16.244,29.232,23.449
	c3.357,4.168,13.131,16.303,9.514,21.758c-1.996,3.01-7.314,2.801-9.514,2.715c-4.299-0.168-9.307-1.73-19.037-9.855
	c-11.576-9.703-10.035-12.119-16.988-15.977c-6.598-3.652-13.074-4.283-21.418-5.102c-10.223-0.99-11.373,0.725-19.035-1.012
	c-9.508-2.172-9.957-5.355-15.969-5.066c-8.828,0.371-12.193,7.381-17.365,5.441c-5-1.895-5.854-10.051-6.461-9.861
	s-0.217,7.59,4.08,14.615c4.139,6.766,10.072,10.129,13.936,12.234c11.902,6.512,15.723,2.562,24.811,8.842
	c2.127,1.447,5.607,5.508,12.576,13.598c6.967,8.088,8.4,10.691,7.82,13.254c-0.816,3.619-5.137,5.955-8.502,6.793
	c-7.734,1.938-13.023-3.51-25.15-9.852c-4.037-2.113-6.143-3.014-7.959-3.803c-8.152-3.527-16.635-6.242-25.322-8.094
	c-3.764-0.801-5.652-1.164-8.43-1.535c-7.367-0.975-10.498-0.359-17.408-2.895c-3.314-1.207-16.049-6.273-24.811-18.689
	c-9.472-13.428-9.668-29.027-15.296-29.23c-0.724,0-2.808,0.152-3.4,1.354c-0.681,1.412,0.998,3.523,1.7,4.422
	c3.263,4.189,11.301,14.506,9.521,18.695c-0.904,2.113-3.922,1.773-7.821,3.062c-9.109,3.002-13.385,11.689-16.642,16.988
	c-3.379,5.492-11.771,12.949-28.551,27.867c-16.236,14.475-22.067,14.705-48.601,32.633c-25.2,17.027-25.187,20.34-40.446,30.252
	c-7.127,4.631-29.18,12.412-72.736,28.221c0,0-12.923,4.688-38.413,5.439c-4.291,0.121-10.65,0.121-13.255-3.74
	c-2.606-3.863-0.131-9.508,1.013-12.598c2.047-5.463,1.932-17.127,1.7-40.447C-316.488,173.166-323.615,171.533-318.891,160.678z"/>
<path d="M31.201,157.957c1.693-1.047,4.414,4.684,13.256,8.156c5.982,2.361,9.537,1.621,10.535,4.082
	c1.078,2.645-1.592,7.02-5.102,8.5c-5.65,2.389-11.873-3.451-12.914-4.42C30.891,168.566,29.189,159.205,31.201,157.957z"/>
<path d="M99.15,170.875c-2.266,2.17-7.83-0.521-8.156-0.68c-4.955-2.439-6.062-6.885-9.861-13.938
	c-3.205-5.967-7.033-13.08-13.934-18.695c-5.674-4.615-12.055-7.098-15.639-8.494c-2.893-1.121-2.277-0.666-11.576-3.742
	c-8.348-2.764-11.656-4.064-15.295-6.453c-3.641-2.387-7.098-4.668-6.795-7.141c0.393-3.17,6.904-5.412,12.236-5.436
	c4.674,0,6.447,1.672,12.576,3.395c4.289,1.207,6.033,1.115,15.295,2.041c13.855,1.395,20.781,2.09,23.449,3.061
	c8.85,3.227,13.857,9.529,20.057,17.365c0,0,7.635,9.607,11.895,25.488c0.521,1.957,1.303,5.23-0.34,8.156
	c-1.752,3.111-5.918,5.236-8.494,4.08c-2.25-1.006-2.779-4.254-3.061-5.789c0,0-1.932-10.236-10.195-22.775
	c0,0-7.807-11.824-21.186-17.301l-0.912-0.375c0,0-0.064,3.537,1.361,5.439c1.26,1.693,3.545,1.902,4.422,2.041
	c5.014,0.803,9.016,6.512,13.254,12.574C89.107,144.834,103.975,166.324,99.15,170.875z"/>
<path d="M546.137,1.608c-0.889-1.982-3.795-3.306-19.232-3.257c-13.834,0.052-20.754,0.073-30.053,1.896
	c-7.555,1.447-14.312,3.567-30.254,10.195c-23.15,9.631-23.295,11.215-39.07,17.678c-13.85,5.664-29.527,12.082-50.648,15.975
	c-11.996,2.213-15.834,1.787-25.83,5.064c-12.299,4.074-15.092,7.582-29.23,13.934c-10.488,4.711-18.227,6.953-32.963,11.217
	c-22.209,6.416-23.021,4.607-38.754,9.854c-19.336,6.455-18.32,9.27-33.281,12.916c-8.93,2.17-7.752,0.803-32.973,5.102
	c-9.492,1.83-18.812,4.443-27.873,7.814c-8.949,3.283-13.021,5.57-13.592,9.182c-0.777,4.602,4.479,8.682,5.062,9.174
	c4.746,3.617,12.141,4.211,14.275,1.361c1.738-2.324-0.789-5.896,1.359-7.814c1.193-1.078,3.373-1.195,4.076-0.342
	c1.137,1.367-2.281,4.307-1.361,6.115c1.658,3.256,16.447,1.17,18.016-4.422c0.586-2.084-0.789-4.248,0.68-5.787
	c0.963-1.008,2.758-1.326,3.4-0.682c0.898,0.904-1.105,3.098-0.342,4.422c0.945,1.621,5.109,0.232,10.537-0.34
	c2.807-0.297,10.225-0.824,17.678,2.039c2.814,1.08,6.566,2.576,7.133,5.434c0.434,2.172-1.084,4.494,0,5.443
	c0.564,0.49,1.484,0.311,2.018,0.18c5.709-1.365,11.918-6.982,11.918-6.982c9.061-8.176,7.707-6.648,9.52-8.494
	c4.691-4.775,9.959-11.129,10.385-12.365c0-0.043,0.064-0.211,0.152-0.211c0.391,0,0.949,3.488,1.018,4.414
	c0.398,4.979-6.895,10.014-9.182,11.578c-16.162,10.924-28.215,18.006-28.215,18.006c-10.289,6.057-14.24,8.686-16.309,13.938
	c-0.338,0.854-3.004,7.857,0.338,11.576c2.895,3.191,8.686,2.137,12.576,1.354c2.998-0.594,6.141-1.535,11.229-4.205
	c4.889-2.619,9.545-5.646,13.922-9.051c12.75-9.523,19.281-14.166,22.432-18.352c2.08-2.77,5.496-7.861,8.162-7.139
	c1.273,0.465,2.1,1.703,2.037,3.061c-0.225,2.297-4.037,3.561-6.119,4.42c-9.82,4.045-8.004,10.133-20.059,18.01
	c-7.125,4.658-10.498,4.342-12.914,8.842c-0.49,0.961-0.863,1.977-1.113,3.023c-0.68,2.807-0.648,5.738,0.094,8.531
	c2.367,10.129-7.236,28.621,0.34,35.686c3.152,2.943,8.625,3.617,11.9,1.701c2.787-1.637,3.619-4.945,4.414-8.834
	c2.951-14.631,2.945-27.17,3.402-27.191c0.318,0,0.354,5.898,2.381,13.256c1.721,6.252,2.729,9.898,6.113,12.576
	c4.725,3.553,11.07,4.082,16.316,1.359c3.859-2.152,6.594-5.875,7.488-10.203c1.344-7.02-3.895-11.084-1.361-16.314
	c0.492-1.014,1.977-3.523,1.02-5.791c-0.205-0.447-0.479-0.863-0.816-1.223c-1.6-1.879-3.768-2.473-6.607-3.311
	c-1.721-0.51-3.422-1.115-5.15-1.578c-7.959-2.172-11.945-3.271-14.615-5.789c-2.418-2.266-3.914-5.27-3.402-5.791
	c0.514-0.518,2.34,1.119,5.441,2.721c3.545,1.846,5.83,2.287,9.514,3.404c11.174,3.387,11.537,5.83,18.02,6.799
	c5.352,0.795,9.545-0.207,12.914-1.021c11.025-2.652,18.197-9.025,25.83-15.975c7.096-6.459,11.625-10.584,16.314-17.676
	c5.219-7.885,8.207-15.801,14.617-16.641c0.324-0.045,2.895-0.361,3.398,0.68c1.305,2.611-11.938,10.26-10.854,12.576
	c0.908,1.975,11.521-1.447,18.699-3.061c18.629-4.213,31.545-0.297,47.586,2.039c12.127,1.773,32.785,0.725,74.092-1.359
	c24.738-1.244,45.191-3.018,68.664-10.854c8.877-2.973,18.754-7.004,26.17-16.641c2.082-2.713,11.576-15.123,8.154-29.914
	c-3.424-14.785-17.502-21.994-19.658-23.107c-10.803-5.578-16.256-1.773-25.549-8.834c-2.504-1.91-10.303-7.844-10.537-15.977
	C538.738,10.545,548.105,6.015,546.137,1.608z"/>
<path d="M227.318,214.381c-2.895,1.305-7.156-0.877-9.174-3.74c-2.486-3.51,0-7.236-0.682-12.576
	c-1.838-14.471-8.352-25.91-5.064-28.219c1.129-0.795,2.092,0.572,5.441,0.682c7.498,0.25,11.178-6.314,13.594-5.066
	c2.799,1.41-2.699,9.957-1.359,23.449c0.723,6.934,2.895,12.49,0.68,20.393C230.107,211.326,229.27,213.51,227.318,214.381z"/>
</svg>
