<?xml version="1.0" encoding="utf-8"?>
<!-- Generator: Adobe Illustrator 16.0.0, SVG Export Plug-In . SVG Version: 6.00 Build 0)  -->
<!DOCTYPE svg PUBLIC "-//W3C//DTD SVG 1.1//EN" "http://www.w3.org/Graphics/SVG/1.1/DTD/svg11.dtd">
<svg version="1.1" id="Layer_1" xmlns="http://www.w3.org/2000/svg" xmlns:xlink="http://www.w3.org/1999/xlink" x="0px" y="0px"
	 width="329.941px" height="347.926px" viewBox="0 0 329.941 347.926" enable-background="new 0 0 329.941 347.926"
	 xml:space="preserve">
<path d="M318.927,347.926c0,0,11.014-3.889,11.014-7.222s-1.015-15.333-3.348-21.333s-13-28.333-13-28.333s-8-19.001-8-22.334
	s-6.666-21.666-9.666-24.333s-24-24.001-28-27.667s-23.668-24.999-25.334-29.666s-4.666-18.335-3.666-32.002s1.269-52.667-0.199-57
	s-11.467-47.667-18.134-59.334s-16.667-28.666-33-35.333s-27.667-1.667-34.667,0s-34,12.333-37.333,15.333s-14,21.667-16.333,28
	s-8.667,11-9.667,14.333s-2.333,24-2.333,27s-7,28-7,33.333s1,26,3.333,29.333s9.333,22.333,7.333,32.333
	s-8.333,32.334-10.667,34.667s-16.333,14.333-19.333,17.333s-4.333,10.001-6,13.334s-6.666,5-9.333,7s-8,7.333-10,13.333
	s-5.667,34.333-7.667,37.333s-11.333,23.334-17,26.667s-12.333,4.666-10.667,6.333s13.333,2.334,18,3.667s71,0,78.667,1
	s52-1.667,62.667-1.667s55,1,67.667,2.667s86.666,3.224,90.666,3.224S318.927,347.926,318.927,347.926z"/>
<path fill="#FFFFFF" d="M110.259,40.705c0,0,7.333-6.666,10.667-8s12.667-4.667,17-3.667s17,2.001,20.667,3.667
	s12.333,3.333,14,4.666s7,10.333,8.333,12.333s9,21.333,11,24.667s4,13.333,3.333,19.333s-0.738,30.333,0.131,33.667
	s8.203,37.334,7.869,41.667s-2,32-1.667,36s3.022,11.667,1.678,16.667s-2.012,4.333-2.345,9.333s0,10.667-2,15
	s-13.333,12.001-19.667,18.667s-13.667,6.999-20,6.666s-50-14.667-53.333-16s-9-6.666-11.333-9.333s-0.667-7.667,1.667-12
	s7.333-14.333,9.333-16.333s2.667-13.333,7-16s20-7.667,22-9.667s8.333-4.666,7.333-12.333s-8.667-20.001-11-22.334s-18-14-19-19
	s-7.667-39.333-7.667-41.333s-1-40,1.667-45.333S110.259,40.705,110.259,40.705z"/>
<path d="M117.259,135.705c0,0-9.333-38.334-9.333-44s-4.333-38,4.667-44.667s13.333-14.333,19.333-14.333s16.667,1,20.333,2.333
	s16.333,1.333,21.333,12.667s13,23,14.333,27.667s5.334,18,2.667,23.667s-2.334,30.667-1.667,34s7.667,21.333,8.333,29.333
	s1.667,42.334,2,46.667s0.667,9.001-1.667,12.667s-3.333,9.667-2.333,13s1.333,7.999-1.333,10.666s-8.333,3.334-11.333,6.334
	s-7,9.334-9.667,11s-7.667-0.666-13.667,0s-26.333-2-26.333-2s1-4.001,0.333-5.334s-3-0.666-4.333,0.667s-6,2.001-10-0.333
	s-18-8.668-20-10.334s-5-4.334-1.667-7s9.333-13.666,11.333-17.333s-0.667-7,3.333-10s14-9.333,17.333-10.333
	s14.333-8.001,16.667-11.334s-3.333-15-3.667-19.333s-14.667-23.667-19.333-26.667S117.259,135.705,117.259,135.705z"/>
<path fill="#FFFFFF" d="M132.01,90.705c0,0,0.75-3.5,2-3.75s2-2.5,2.25,0s-1,4.5,0,6.75s2.317,9.75,0.034,12.75s-3.784,4.5-4.284,8
	s-1.25,5,0,5.75s2,0.75,3.5,0s1.25-2,3.5-1.75s4.25-1,5.5,0s1.25,1.375,1,2.312s-0.5,1.688-2.25,1.188s-2-1.75-3.5-1.25
	s-0.75-0.68-2.75,1.41s-1.75,2.59-4,2.34s-2.75-1.25-3.5-1.75s-1.5-0.75-1.75-2.75s-1.5-4.5,0-5.5s3-6,3.5-7.25
	S132.01,90.705,132.01,90.705z"/>
<path fill="#FFFFFF" d="M127.035,132.455c0,0,0.726-2,2.726-1.75s2.75-0.543,4.75-0.021s2.75,0.568,5.5,0.795s6.988,0.273,7.619,0
	s-1.777-2.18,0.927-0.977s2.954,0.203,3.454,1.953s0.5,1.75,0.5,1.75s-1-0.75-3,0s-2.988-1.5-3.869,0s0.869-0.75-0.881,1.5
	s-2.976,2.75-4.988,2.5s-1.857-0.75-3.435-1.5s-0.578-2.539-3.078-2.52s-4.25,0-4.25,0L127.035,132.455z"/>
<path fill="#FFFFFF" d="M159.01,90.455c0,0-5.5,0-6.5,0s-3,0.5-2.5-1.25s-1.658-2.838-0.079-3.419s3.162-2.081,4.246-2.081
	s4.833,0,4.833,0h1.25c0,0,1.25,1.912,0,2.081s-1.25-2.081-1.25,0.169s0.75,4.566,0.75,4.566L159.01,90.455z"/>
<path fill="#FFFFFF" d="M169.26,88.705c0,0-4.125-3-2.5-4.375s3-1.375,3.375,0s0.625,3.5,0,4.375S169.26,88.705,169.26,88.705z"/>
<path fill="#FFFFFF" d="M126.51,87.83c0,0,0.5-3.5,1.125-3.5s1,0.375,1.75,1.75s1.125,1.777,0.5,3.014s-1.375,1.868-2.125,1.427
	S126.51,87.83,126.51,87.83z"/>
<path fill="#FFFFFF" d="M118.385,91.58c0,0-3.75,1.5-4.5,0s-2.5-2.544-1.875-4.084s2-4.103,2.375-4.197s2.875-1.094,3.375-0.969
	s2.375-0.011,2.375-0.011s-0.75,0.261-1.25,2.011s-0.875,4.027,0,4.764s1.25,2.111,1.25,2.111L118.385,91.58z"/>
</svg>
