<?xml version="1.0" encoding="utf-8"?>
<!-- Generator: Adobe Illustrator 16.0.0, SVG Export Plug-In . SVG Version: 6.00 Build 0)  -->
<!DOCTYPE svg PUBLIC "-//W3C//DTD SVG 1.1//EN" "http://www.w3.org/Graphics/SVG/1.1/DTD/svg11.dtd">
<svg version="1.1" id="Layer_1" xmlns="http://www.w3.org/2000/svg" xmlns:xlink="http://www.w3.org/1999/xlink" x="0px" y="0px"
	 width="974.457px" height="1200.425px" viewBox="0 0 974.457 1200.425" enable-background="new 0 0 974.457 1200.425"
	 xml:space="preserve">
<path d="M734.753,237.74c0,0,16.333-35.333-5-76s-60-85.333-60-85.333s-32.666-38.667-33.333-46s-4.667-26.667,9.333-29.333
	s22.667,0,28.667,4s22.667,6.667,28.667,11.333s6.667,6,14,10s12.666,1.333,17.666,6s8.334,8,14.334,12.667s16.666,18,18.666,24
	s4,10.667,8.667,18s17.333,21.333,21.333,26s7.333,9.333,16,17.333s64.667,56.667,74.667,64s50.666,60.667,57.333,69.333
	s18,42,20.667,47.333s16.667,78.667,0,156.667s-60.667,172.667-68,186.667s-84.667,124-98.667,140s-104.667,110-122,128
	s-108,98-135.333,114s-108.667,60.668-117.333,67.334s-65.333,36.667-75.333,38s-24.667,2.667-30,6s-80,30.664-92.667,33.331
	s-85.333,20.001-94,19.334s-48.666-1.334-57.333-2.667s-18-12.667-26.667-12.667s-43.333-12.666-46-15.333
	s-6.667-16.666,3.333-27.333s56-60.667,62.667-66.667s73.333-101.333,84-107.333s144-99.333,160-112s92.667-76.001,104-80.667
	S522.42,673.072,548.42,625.072s104.665-180.668,127.999-242.001S734.753,237.74,734.753,237.74z"/>
<path fill="#FFFFFF" d="M757.086,313.071c0,0-9.333,1.333-10,8s-4.001,14.667-4.667,19.333s-7.332,13.333-7.666,17.333
	s-9.668,40.666-12.334,49.333s-10.666,29.334-13.333,32.667s-8,11.333-10,14s-2,4-8,3.333s-8.667-2.666-14-5.333s-8.666-4-9.333-6
	s0.667-1.334,0-4.667s4-12.667,4-12.667s27.333-75.333,33.333-88s24.001-78.667,29.667-82s9-18,14.333-18.667s8,0,8,0
	s-3.333,1.333,0,3.333s2.667,4.667,4.667,6.667s-6,2,2,2s9.999-6,10.666-8s4.667-16,4.667-16s3.333-26.667,5.333-31.333
	s-0.667-9.333,0-12s3.516-7.333,0.758-11.333s-4.758-8-2.758-10s2.543-4,3.938-6.667s-2.062-4,0-6s1.957-7.333,0.343-10
	s-1.614-2.667-1.614-2.667s-1.022-5.333,2.822-4s6.511-0.214,6.511-0.214s2-3.547,6,0s6.001,4.881,9.334,8.214
	s53.334,47.333,58,52.667s44.666,40,47.333,44.667s2.001-1.333,2.667,4.667s0,4.667,0,8.667s-2.741,9.333,0.296,11.333
	s3.037,2.666,3.037,5.333s-6.666,6.667-7.333,9.333s-2.666,4.667-2,9.333s0,10.667,2,14s4,4,7.333,6s4.001,0.667,8.667,2
	s8.666-0.667,11.333,2.667s3.333,4,5.333,6.667s9.334,0.667,9.334,3.333s-4-2.667,0,11.333s4.666,35.333,4,46.667
	s-3.334,93.333-6,98s-4.666,2.667-6.666,5.333s-4,2-4.667,6.667s-1.333,4.667-2,8s-1.999,0.671-1.333,7.002s0.667,6.997,2,9.664
	s-1.334,7.333-3.334,9.333s-4,2.667-6,3.333s-3.999-5.333-4.666,0s0.666,2-1.334,8.667s-2.666,20-3.333,24.667s-1.334,8-2.667,12
	s-57.999,116.666-64.666,124.666s-39.334,50.666-58.667,74s-40.666,56-51.333,64S639.754,945.738,633.754,949.738s-28,18-32,24
	s-12.667,17.333-15.333,16s-6,2.666-3.333-4.667s5.333-6.667,2.667-12s-6.667-14.666-13.333-14.666s-8.667-2-14,1.333
	s-9.333,3.999-12.667,9.333s-38.667,33.334-44.667,37.334s-31.333,17.333-39.333,21.333s-18.668,9.333-15.001,0
	s5.668-20.667,8.334-24s16-33.333,17.333-38s-0.667-14.667-2.667-18s-2.667-12.667-9.333-14.667s-10.668-4.667-13.667-4
	s-7-1.334-10.333,2s-5.333,2.666-6.667,6s-2.667,4.666-3.333,8s-8.667,14-14,20s-8,9.334-12.667,11.334s-5.333,0.666-12.667,4.666
	s-10.667,4.667-12.667,8.667s-2.667,0.667-4.667,8s-2.667,7.333-3.333,11.333s5.333,3.334,0,7.334s-3.333,3.334-8.667,6
	s-4.667-0.001-10,2.666s-12,4.373-14.667,7.854s-3.333,4.813-8,6.813s-5.334-3.333-12.667,0s-8,0.001-11.333,4.667
	s-14,21.332-18.667,25.999s-10,10.001-14.667,13.334s-4.667,3.999-12,6.666s-8.667-1.334-19.333,6s-14.667,17.334-14.667,17.334
	s-0.667-4.666-9.333,0s-17.333,7.332-21.333,10.666s-8.667,3.334-13.333,10.667s-8.667,17.333-8.667,21.333s-5.333,6.666,0,10
	s6.667,0.667,8,4.667s1.333,6,1.333,8s6,0.667,0,2s-9.333,0-9.333,0s1.927-2.001-2.37-4.667s-9.63-10-11.63-11.333
	s-7.333-1.999-12-3.333s-18.667-9.334-24.667-9.334s-11.333-3.333-11.333-3.333s0-2.667,0-4.667s4.667-14.666,6.667-20.666
	s2.667-10-1.333-12s-6-4.001-9.333-3.334s-8.667,1.333-8-2s-6.114-3.334-0.057-6s12.724-7.332,16.057-8.666
	s9.333-13.334,14.667-16.667s15.333-12.001,23.333-16.667s48.666-27.334,51.333-28s52-24,60.667-28s24-13.333,24-13.333
	s44-24.666,46-25.333s94.666-47.334,107.333-55.334s32-27.999,40-28.666s14.667-1.334,23.333-12.667s22.296-19.999,24.481-25.333
	s0.185-7.333-3.815-8s-6-1.333-10.667,2s-11.333,7.333-15.333,11.333s-14.667,9.334-20.667,16.667s-16.667,14.666-23.333,18.666
	s-41.333,26-47.333,30.667s-38.667,21.333-45.333,25.333s-44.667,20-49.333,24s-56.667,28.668-60,29.334s5.512-14.001,15.333-12.667
	s12.667-12.666,18.667-15.333s30-25.333,36.667-28s42.667-34,50.667-36.667s32.667-34.666,42-39.333s38-20,38-20
	s92-80.001,101.333-89.334s51.334-62.001,56.667-70.667s38.666-74,40.666-84s4-25.333,4-25.333s1.333-7.333-6-2.667
	s-8.667,8.005-12,9.669s-3.334,2.33-6,2.997s-0.666-7.327-6.666-2.997s-0.666,2.33-6,4.33s-4.667,1.334-10.667,3.334
	s-3.999-0.668-11.333,2.666c-7.333,3.334-6,9.334-7.333,3.334s-2.003-6.667,2.332-10.667s44.335-74.997,44.335-74.997
	s5.334-5.67,6.667,2.997s2,14.667,6,19.333s5.333,14,11.333,14s7.333,6.667,12,1.333s6.667-8,8-11.333s0.666-10,1.333-12.667
	s30-65.333,34-68.667s20.664-18,20.332-23.333s7.668-41.333,8.335-43.333s11.334-35.333,12.667-38s6.666-23.333,6.666-23.333
	L757.086,313.071z"/>
<path d="M803.755,280.405c0,0-4.666-7.333,0-12s4-14.667,4-14.667s3.333,0,5.333,0s4.001,0.667,6.667,6s0,4.667,5.333,12
	s7.334,9.334,8.667,14.667s6,8.667,0,10s-4.668,4-9.334,0s-4.666-8.667-8.666-9.333S803.755,280.405,803.755,280.405z"/>
<path d="M828.421,452.405c0,0-14.418-5.333-9.209-13.333s5.875-19.333,9.209-20.667s8.322-4,8.322-4v-8c0,0-1.012-7.334,0-10.667
	s0.345-6.667,6.345-10.667s7.333-4,9.333-8s6.001-29.333,7.334-34.667s4.666-33.334,4.666-40.667s-0.667-13.333,4-16.667
	s8.001-6.667,11.334-6s3.999,2,6.666,5.333s2.666,4,4,10.667s2,14.667,6,20.667s2.667,6.667,10.667,11.333s6.667,4.667,12.667,4.667
	s4-9.333,9.333,2s3.999,11.333,7.333,20s3.334,11.333,5.334,17.333s3.334,12,0,15.333s1.332,3.333-7.334,2.667
	s-11.332-3.333-12.666,2s-2,2-4,11.333s-2,13.333-4.667,14.667s-5.333,3.333-11.333,2s-2-4.667-12-4.667s-7.334-5.333-14.667,0.667
	s-8.666,6.667-13.333,11.333s-16.668,12-21.334,17.333S828.421,452.405,828.421,452.405z"/>
<path d="M907.088,517.072c0,0-8.001,0.667-12.667-3.333s-8-8-7.333-11.333s5.163-3.333-0.085-9.333s-9.561-4-6.071-13.333
	s6.157-27.333,8.823-27.333s1.333-5.333,9.333,0s4,1.333,8,8s4.667,6.666,6.667,17.333s2.667,24.004,6,27.669s4,2.998,3.333,7.665
	s-4.667,9.333-4.667,9.333s-1.333,1.333-3.333,0S907.088,517.072,907.088,517.072z"/>
<path d="M823.755,700.405c-2.667-2-12.688-2.001-5.678-7.334s13.011-17.332,15.011-20.666s7.333-14.668,11.333-19.334
	s10-13.332,12.667-16.666s2.667-7.334,6-6.667s4.667-6.146,6-0.073s6.667,2.74,0,10.073s-8.666,7.334-11.333,12.667
	s-2.667,0.055-4.667,11.36s-8.174,12.639-9.087,17.306s-2.913,4.666-6.913,10S823.755,700.405,823.755,700.405z"/>
<path d="M831.088,491.738c0,0-1.333-10.667,0-13.333s1.333-6.667-6-4.667s-3.579,2-9.456,4s-5.877,2.126-10.544,4.729
	s-10.001,4.604-10.667,9.271s0,3.333,0,9.333s0,12-4,11.333s-2,0.671-7.333-6.998s-3.999-14.159-7.333-12.581s-6,0.912-8,3.578
	s-7.333,6-8,12s1.999,3.187-3.334,14.593s-2.332,3.407-12,21.407s-4.003,9.333-9.668,24s-9.665,27.614-9.665,31.807
	s7.333,14.859,0,19.526s0.001,2.106-11.333,7.387s-17.334,7.28-18.667,13.28s-3.333,5.333,0,11.333s6.001,0.802,6.667,5.067
	s5.333,2.987-0.667,6.96s-2.981-0.026-7.824,4.64s0.49-1.333-12.843,10s-10.666,14.666-19.333,26.666s-16,25.333-34,40
	s-39.333,34.666-45.333,44s-8.667,11.333-10.667,16s-8,1.334-2,4.667s11.334,4.667,17.333,0s18-18.667,26.667-24s40-42.667,46-46
	s46.666-51.333,59.333-57.333s5.33-4.001,16.332-9.334s16.336-11.198,21.002-16.266s20.667-33.734,28-43.067
	s10.666-36,16.666-49.333s31.345-66,31.345-66L831.088,491.738z"/>
</svg>
