<svg id="Layer_1" data-name="Layer 1" xmlns="http://www.w3.org/2000/svg" viewBox="0 0 224 224"><defs><style>.cls-1{fill:#fff;stroke:#c0c;stroke-miterlimit:10;stroke-width:8px;}</style></defs><title>Artboard 1</title><circle class="cls-1" cx="112" cy="112" r="108"/><circle class="cls-1" cx="112" cy="112" r="108"/><circle class="cls-1" cx="76.35" cy="79.48" r="34.68"/><path class="cls-1" d="M60.82,95a22,22,0,0,1,0-31"/><path class="cls-1" d="M172.45,161.66a10,10,0,0,1-.07,14.08h0a10,10,0,0,1-14.08.06L95.58,113.07c-4.24-4.24,3.31-3.31,7.18-7.18h0c3.87-3.87,2.72-11.2,7-7Z"/><path class="cls-1" d="M109.72,127.22,95.58,113.07c-4.24-4.24,3.31-3.31,7.18-7.18h0c3.87-3.87,2.72-11.2,7-7l14.14,14.14Z"/></svg>