<svg id="scream" data-name="Layer 2" xmlns="http://www.w3.org/2000/svg" viewBox="0 0 690.72 1069.78"><defs><style>.cls-1{fill:#fff;}</style></defs><title>Artboard 1</title><path d="M231.66,78.08c-7.21-.86-14.54,15.58-16,19-8.19,19.22-5.51,37.59-4,47a564.73,564.73,0,0,0,18,76c5.55,18.49,10.37,37.66,20,76,15.89,63.2,17.17,77.13,15,94-1.61,12.49-5.14,26.83-2,28s11.16-11.33,16-22c6.28-13.86,6.28-22.73,9-35,5.13-23.16,12.27-23.86,18-43,10.91-36.45-3.83-71.17-8-81-9.38-22.11-13.53-15.17-25-39-9.51-19.77-16.47-46.45-30-99C240.42,90.37,237.48,78.77,231.66,78.08Z"/><path d="M238.66,301.08c-11-7.25-28.88-1.63-39,6-11.68,8.8-14.94,21.68-18,33-16.58,61.38-17.44,40.79-25,80-10.42,54.05-1.46,55.22-11,116-3.66,23.32-7.42,38.7-13,79-4.92,35.57-6.36,55.17,5,73,6.74,10.56,20,23.7,31,21,11.84-2.91,16-22.9,19-36,9.33-40.26-3.15,34,45-131,21.38-73.28,23.59-87.08,23-106-.63-20.32-3.64-19.11-6-54C246.14,330,251.63,309.6,238.66,301.08Z"/><path d="M314.66,335.08c-4.94,0-8.63,11.36-16,34-9.37,28.78-8.89,42.61-22,62-4.87,7.21-5.39,6-9,12-12.49,20.88-10.38,42.73-10,52,.33,8.06-8.44,34.71-26,88-13.84,42-21.1,64-33,94-21.67,54.55-26.55,54.35-36,82-13.22,38.7-13.33,72.33-13,138,.47,93.46,1.27,140.61,29,161,8,5.89,29.46,7.34,72,10,116.61,7.27,100.8-11.35,168-8,6.84.34,21.66,1.26,30-8,11-12.25,4.14-34.95,2-42-12.1-39.88-40.39-44.94-57-74-16.69-29.22-9-60.55,5-117,19.3-78.11,40.72-80.33,57-149,2.61-11,5.08-51,10-131,3-49.41,4.53-85-9-128-7.53-23.95-20.39-52.34-30-51-4.45.61-4.61,7.12-14,23-6.26,10.59-14.57,24.35-29,34-9.27,6.19-17.09,11.42-25,10C330.09,421.91,328.51,335,314.66,335.08Z"/><path d="M324.66,324.08c-5.61,4.21,10.6,24.09,32,71,1.49,3.25,4.4,9.7,10,11,8.81,2,18.43-10,28-22,6.57-8.23,22.72-28.46,18-34-2.77-3.26-10.25,1.46-20,3C358.22,358.5,332.32,318.33,324.66,324.08Z"/><path d="M493.66,391.08c-9-1-19.24,12-23,23-4.37,12.82,0,23.06,4,40,0,0,3.86,16.15,7,57,2.06,26.8-.88,46.48-5,74-8.59,57.43-21.44,78.26-11,87,9,7.53,29,.71,41-9,9.49-7.66,19-21.09,23-70,2.21-27.06,2.77-65.35-8-124C513.74,425.93,507.36,392.64,493.66,391.08Z"/><path d="M477.66,63.08c-3.9,2.3.64,13.36,2,29,1.27,14.58-.85,26.05-10,57-20.48,69.27-25.29,64-28,89-3.35,31,4.55,34.32-2,63-3.83,16.79-9.13,27-5,42,2.62,9.5,5.8,9.25,15,29,8.49,18.21,8.4,24,14,26,9,3.16,23.82-6.89,27-19,2.58-9.82-3.33-17.64-7-26-8.33-19-3.09-36.1,6-71,13.24-50.81,19.86-76.21,24-102,9.69-60.32,1.09-80.78-6-92C498.4,73.39,482.67,60.12,477.66,63.08Z"/><path d="M268.66,38.08c13-17.53,32.33-24.42,48-30a125.11,125.11,0,0,1,48-8c11,.39,38.24,1.72,64,21,7.53,5.63,26,19.84,34,45,5,15.79,3.54,28.41,1,48-2.83,21.92-7.1,30.8-22,79-9.83,31.8-14.75,47.87-15,56-.8,26.59,8,36.9,1,59-2.22,7-7.66,24.11-23,31-13.48,6-27.19.85-40-4-10-3.81-30.75-11.66-42-31-11.91-20.49-.35-31.73-8-61-6-23.16-14.68-21.49-32-54-7.47-14-23.7-45.25-26-86C255.37,80.18,254.1,57.73,268.66,38.08Z"/><path class="cls-1" d="M359.66,269.08c-.84-9.63,2-24.17,11-27,5.9-1.87,11.82,2.15,13,3,11.74,8.39,10.12,28.35,6,40-1.94,5.5-4.29,12.11-9,13C372.75,299.55,361,284.33,359.66,269.08Z"/><ellipse class="cls-1" cx="343.67" cy="190.53" rx="5.92" ry="8.99"/><ellipse class="cls-1" cx="379.49" cy="191.41" rx="6.67" ry="9.86"/><ellipse class="cls-1" cx="410.7" cy="149.77" rx="17.97" ry="20.82"/><ellipse class="cls-1" cx="316.27" cy="148.02" rx="18.41" ry="22.57"/><circle cx="411.28" cy="150.32" r="5.59"/><ellipse cx="315.84" cy="148.23" rx="3.94" ry="5.7"/></svg>