<?xml version="1.0" encoding="utf-8"?>
<!-- Generator: Adobe Illustrator 16.0.0, SVG Export Plug-In . SVG Version: 6.00 Build 0)  -->
<!DOCTYPE svg PUBLIC "-//W3C//DTD SVG 1.1//EN" "http://www.w3.org/Graphics/SVG/1.1/DTD/svg11.dtd">
<svg version="1.1" id="Layer_1" xmlns="http://www.w3.org/2000/svg" xmlns:xlink="http://www.w3.org/1999/xlink" x="0px" y="0px"
	 width="795.78px" height="890.815px" viewBox="0 0 795.78 890.815" enable-background="new 0 0 795.78 890.815"
	 xml:space="preserve">
<path stroke="#000000" stroke-miterlimit="10" d="M519.815,137.248c0,0-47-26.5-48.5-27s-35.5-9.5-40-11.5s-49.5-5-57-4.5
	s-90,14.5-97.5,16s-80,25-93.5,27s-31,7.5-37,11s-29.5,18.5-37.5,20s-7,1.5-16,5s-15.5,9.5-19,10.5s-5.5-49.5-4.5-57s3-78,3-82
	s-7-43.5-7-43.5s-5.5-4-5.5,6.5s6,32,0,40s-9,33.767-11,44.383s-10.5,104.117-6,113.117s16,36,17,42.5s-2.5,21.5-3.5,23.5
	s-2,2.5-4,0s-1.5-7.5-4-7.5s-7.093-2-6.796,1.5s2.796,6,2.296,12.5s-5,45-6,48.5s-8.5,17-9.5,15.5s-1,0-2.5-6s-7.5-38.5-6-48.5
	s1.522-33.5-0.239-35.5s-1.761-2-1.761-2s-5-3-5,0.5s-1,4.5,0,8.5s1.5,51,2,58s1,29,1.5,34.5s6,51,4.5,61s-6,57.5-6,62
	s4,190.5,3,197s-15.5,50.5-17,58s2.5,85,9,97s15,30.5,19,38s10.5,12,2,12s-13-3.5-14.5,0s-6.5,4.5-4,8s-2,3,8,5s14-2,24,0
	s290.5,0.577,290.5,0.577l450.5,0.49c0,0,12.5-11.067,9.5-36.567s-0.5-23-5.5-26s-9.5-0.5-9.5-6s3.5-7-0.5-10.5s-1.5-4.5-8-6.5
	s-8-4-11.5-3.5s-5.5-0.5-7.5,0s-5.5,4-5-1.5s2-9.5,1.5-12s-2.5-5.5-2.5-5.5s-11-8-18-7s-15,1.5-20-0.5s-9-0.5-11-7.5
	s-2.5-14.5-2.5-14.5s-8-24-10-26.5s-6.5-6-13.5-6s-11-0.5-18.5-0.5s-8-3-14.5,1s-8.5,3.5-11.5,5s-5-13.5-12.5-17.5
	s-21-11.5-25.5-5.5s-6,4.5-5.5,9s-0.5,5,0,9s-0.5,5-9.5,3s-20.5-8.5-29-7.5s-8-1-13.5,0s-8-0.5-11,0s-5-18.5-4.5-20s0-25-2.5-30.5
	s-2-76-2-76l-2.5-17.5c0,0-6-8.5-9-1.5s-1.5,15.5-2,21.5s-3,67.5-6.5,74s-5.5,8-5,13.5s0.5,9,1,13s2,11.5,0.5,13s-5,0-9,1.5
	s-7,1.5-7,1.5s0.5-8-6-11.5s-8-4.5-9.5-2.5s-2.5,2.5-4.5,6s-4.5,2-6,5s-2,7.5-2,7.5s-6.5-0.5-11.5,0s-7.5-2-10.5,0s-6,1.5-7,4.5
	s-1,5-3,9s1,6.5-5,5.5s-9.5-2.5-11.5-2s-1.5,2.5-4.5,0s-1,6-3-2.5s-2-17-2-21s-3-6-9-6s-8-1-13,2s-7.5,2-9.5,5.5s-3.5,4.5-5,8
	s-2.5,3-3.5,6s-25.5,1-25.5,1s1-10,3.5-11.5s8-11.5,12-13.5s10.5-17.5,11.5-19.5s1.5-15.5,1-17s-3.5-4-5-3s-4,1-5.5,4
	s-5,13-6.5,18.5s-6.5,10-9.5,14.5s-6.5,8-9.5,12s-5,8-11,12.5s-14,10.5-14,10.5s1.5-68-5.5-77.5s5.5-23.5,8.5-25.5s24.5-31.5,54-30
	s40.5,8.5,47.5,12s13.5,8,19,11s17,14,20.5,17.5s6.5,6.5,9.5,8.5s4.5,1.5,5.5-2s4.5-3-1-6.5s-18-16.5-20-18s-2-1.5-2-1.5
	s21-8.5,29-15.5s46.5-43.5,51.5-46.5s36.5-22.5,44-23.5s35.5,0.5,41.5,4s34,24,41.5,27s17.5,8.5,25,8s9,0,11-4.5s6-6,0.5-8.5
	s-3.5-4-9-3s-9.5,0.5-13.5-1.5s-41-29.5-54.5-31s-32.5-11.5-62,1.5s-56.5,39-64,46s-26,27-36,30s-14.5,7.5-22.5,3s-12-15-20.5-17
	s-64-7-73-2s-40.5,25-44,29s-6,4.5-6,4.5s-17-22.5-20.5-27s-21.5-25.5-23.5-33.5s-19.5-49.5-19-51s-9-13-10.5,8.5s-6,79-3.5,85
	s13,37.5,13,37.5s-29-34.5-29.5-36s-20-44-20-44s-1-36,2-43.5s8.5-46.5,8.5-48.5s-2-5.5-4.5-2.5s-7.5,7-8,9s-6.5,37.5-6,48.5
	s-1,17.5-1,17.5s-21-73-20.5-82s-10-77.5-9-91s-4-46.5-1.5-50s44-42,109.5-84s75-47.5,85.5-48.5s38-7,54-6s60,19,68,27
	s41,49,41,78.5s-0.5,34-10.5,41.5s-26,17.5-35.5,12s-22.35-10-22.925-18.5s-6.075-19.5-6.075-22.5s-0.5-12-2.5-14s-6-6-11.5-4
	s-21.5,8-24.5,14s-7.5,27-7,32.5s0.5,24.5,6.5,32s30.5,25,38.5,29s45.5,7.5,51.5,7.5s72-6.5,105.5-55s40-96.5,30-129
	S519.815,137.248,519.815,137.248z"/>
<path stroke="#000000" stroke-miterlimit="10" d="M429.815,309.748c0,0,14-6,15.5-22s-4.5-45-15.5-53.5s-43-30-68.5-27
	s-59,25-75.5,60.5s-19,76.5-15.5,91.5s26.5,53.5,44,64s62,30.5,73,32s52.5,9.5,84.5-5.5s52.5-32.5,62.5-39.5s39.5-35,57.5-38
	s46.5-6.5,56.5,2.5s27,29.5,19.5,42.5s-13,6.5-19.5,7.5s-19.5-1-20.5-2.5s-7-5-24.5,0s-37,18-34,28.5s8.5,24.5,12.5,30.5
	s19,27,66.5,18.5s68-34.5,76-59.5s-10-86-31-95s-40.5-16.5-61.5-12s-71,35.5-85,45s-49,37.5-69.5,41.5s-87.5,12.5-120-18
	s-51-47.5-41.5-95.5s66-52,76.5-44s16.5,11.5,17.5,22s4.5,18.5,8.5,22S429.815,309.748,429.815,309.748z"/>
<path stroke="#000000" stroke-miterlimit="10" d="M688.815,179.748c0,0-5.5-5.5-13.5-5s-22-1.032-28.5,2.484s-30,12.516-31,14.516
	s-13,28.5-13.5,36.5s5.5,30.5,9,40.5s10.5,20,20.5,24.5s46,11,59.5,7.5s34.879-25,34.939-35.5s-0.939-13-3.439-13s-7,4.5-11.5,9
	s-11.5,10.5-22,10s-38.5-5.5-40.5-11s-9.5-38,7-56s30-22.5,30-22.5L688.815,179.748z"/>
</svg>
