<?xml version="1.0" encoding="utf-8"?>
<!-- Generator: Adobe Illustrator 16.0.0, SVG Export Plug-In . SVG Version: 6.00 Build 0)  -->
<!DOCTYPE svg PUBLIC "-//W3C//DTD SVG 1.1//EN" "http://www.w3.org/Graphics/SVG/1.1/DTD/svg11.dtd">
<svg version="1.1" id="Layer_1" xmlns="http://www.w3.org/2000/svg" xmlns:xlink="http://www.w3.org/1999/xlink" x="0px" y="0px"
	 width="759.966px" height="503.731px" viewBox="0 0 759.966 503.731" enable-background="new 0 0 759.966 503.731"
	 xml:space="preserve">
<path d="M4.659,315.5c0,0,2-8.5,5-9.5s12.5-5,15-5s9-5,12.5-3.5s9,3,11,5s10.5,7,11,8.5s6,4.5,6,4.5s2,3,4,0s-3.5-4.5,0-6.5
	s2.5-0.447,6-1.974s0-3.526,3.5-1.526s5,2,6,4s-4.5,0.5,1,2s5.5-0.5,8.5-0.5s-2.5-4.5,3,0s4.5,1,5.5,4.5s-1.5,0,1,3.5
	s-2.5,4,2.5,3.5s1,2.5,5-0.5s5.5-3.5,8-6.5s6-6.5,6-8s-2.5-2.5,0-6s2.5-4.5,3.5-6.5s-5-1.5,0-4.5s4,2,5-3s-2.5-1.5,0-7
	s-1-0.5,2.5-5.5s5-6.5,7-8s1.5-1,5.5-4s2.5-4,7.5-5.5s5-2,12-2.5s9.5,0.5,15,0s7-0.289,11.5-0.145s5.5,1.016,9.5-0.17s2-1.314,6,0
	s4,1.314,4,1.314s2,0.5,0,2s-3,2-5,2.5s-1.5-1-5,1.5s-8-5-7,5.5s1,10.5,1,10.5s-1,0.5-1.5,3s-1-0.5-0.5,2.5s1.5,4.601,3,5.05
	s4,1.95,5.5,2.95s1-0.5,8,2s5.5,3,9.5,4.5s2.5-2.5,4,1.5s0.5-0.5,1.5,4s0,6.5,0,6.5s3.389,2,0.444,5.5s-4.444,4.705-4.444,7.853
	s-2,3.647,0,5.647s5.294,1,5.647,2.5s1.647,1.5,0,4.5s-1.647,3-1.647,3s-1.572,3,2.464,3s-1.964,3,4.036,0s6-3,6-3s-3-2.5,0,0
	s3.5-0.333,4,4.333s-1.5,5.667,0,9.667s-1.335,7.5,0.083,10s-0.678,4.5,0.37,6s-4.452-11.5-8.952-13s-2-2-9.5-3s-14.5-6-17.5-8
	s-8-5-11-5s-0.5-6-3,0s0,7.5,0,12.5s-2,11-2.5,13.5s-2,5.5-2.5,7s-1.5-1,3,0s6-3,9-5.5s-4-4.5,3-2.5s7,2.5,9.5,4.5s4,1.485,5,3.993
	s0,2.507,1,5.007s-2,0,1,2.5s3,1,4.5,0s1-1,3-4s-2.5,2,2-3s1.5-9,4.5-5s2.5,4.5,4.5,6.5s2,2,2,2l3.093,0.5l2.407-0.5
	c0,0-0.5,3.236,0,4.868s5,34.132,10,40.132s26.5,49,29.5,53s14,17.5,16,19s-39.5,0-39.5,0s-16-13.5-24-20s-31.5-23-35-29
	s-29.5-38.5-31.5-45.5s-19.93-39-18.965-44.5s-4.035-27-3.535-29s-1.5-3.5-2.5-2s-0.5-2.5-1,1.5s-1.5,23.5,0,28s21.5,51,22.5,53
	s21,32,27.5,38.5s27,25,31,27.5s25.5,19,25.5,19s-22-4.5-30-5s-41-2.5-48.5-8s-64-38.5-69-42s-36.5-28.5-44-36
	S21.659,355.5,4.659,315.5z"/>
<path d="M311.659,495.167c0,0-14.5-13.667-15-16.167s-15.5-21.5-17-26s-20-39-20-41.5s-10-50-9-54
	c0.559-2.235,0.471-6.811,0.285-10.414c-0.147-2.847-0.355-5.086-0.355-5.086s4.57,5.5,6.57,4s1.5-1.5,2.5-4s-4-13.5-3-17.5
	s1-8,1.5-9s-2.5-6-3-8s-3-2.5-2-5.5s1-3,1-5.5s-2.641-5.5-3.57-8s-2.93-6-2.93-6s-4.5-3.5,0-3s4.5-2.598,6.5-0.049
	s2.5,2.549,3,6.049s1.5,6.5,3.5,13.5s3,11,3.5,13s3.5,1,6.5,0.5s7.5-1.5,8,0.5s0.5-2,2,2.5s1,6,2.5,7s3,3.5,5,0.5s3-5,3-7.5
	s-2-9-2.5-11s-2-5.5-3.5-7.5s-4.5-4-3-5.5s1.5-2,4-2s4.5-2.5,4.5-2.5s1.5-2,0.5-4s-2-3.636-2.5-4.568s-3-6.932-1.5-9.932s1-6.5,5-6
	s8.64-1.596,10.57-0.048s3.43,0.048,4.93,2.548s4.5,2.5,4,5.5s-3.889,5,0.056,7s4.444,3.5,7.944,2.5s6-7.5,8.5-6s4.5,2.5,7,5
	s1.5,1.5,3.5,5s-3.5,1.5,0,6s-1,0,3.5,4.5s5,4.5,7,7s3,3,4,6.5s-3.5,41.5,0,63.5s11,53.5,21,69.5s33,56,35,57.5
	S311.659,495.167,311.659,495.167z"/>
<path d="M417.159,498.789c0,0-24.5-32.789-27-39.289s-27.5-56-28.5-64s-5-65.5-5-69.5s0-13,0-13s0.5,5.5,3,7.5s0.5,5.5,2.5,2
	s2.5-5,3-7s0.5-6.5,0.5-6.5s0,3,2.5,0s3-4.5,6-4s-1.5-2.5,3,0.5s5,3,6,6s2,1,3.75,4s-2.25,5,1.75,3s4.5,4,4-2s-1-11.705-2-12.353
	s-3-3.647-1.5-5.647s-3,0,1.5-2s3-4.5,7.5-3.5s1.5-2.5,4.5,1s0,2,3,3.5s1.56,2,3.53-0.5s-3.53-6.5-2.53-8.5s2.53-4,2.53-4h2.97
	l1.5,24c0,0,0.06,0.5-4.47,0.5s-4.53-0.5-7.03-1s0-1.5-2.5-0.5s-1-3.5-2.5,1s-2,3.5-2,7s1.5,4-2,6s0.5,0.5-3.5,2s-7,1.5-10.5,3.5
	s-6,3-7.5,4.5s-6,2-6,4.5s0.5-1,0,2.5s-4.5,2-0.5,3.5s1,5.5,4,1.5s3-4,3-4s2.5-3.5,4.5-0.5s-1,1,5,4s6,3,6,3s1,1.5,2,4.5s-4.5,1,1,3
	s10,0.5,10,0.5s0.5-4.5,2.5,0s-1.5,2,2,4.5s0.5,4.5,3.5,2.5s1.5,1.5,3-2s-3.5-5.5,1.5-3.5s2,0,5,2s1.5-3,3,2s5.5,20,5.5,26
	s10,46.5,11,49s14,61.078,17,64.289S417.159,498.789,417.159,498.789z"/>
<path d="M461.659,498.789c0,0-23.5-76.289-23-82.289s-16-77.5-16-77.5s4-1,4,0s1.5-0.5,3-2.5s-2.5,1.5,1.5-2s2.5-4.5,6.5-5
	s3-0.5,7,0s-2-2,4,0.5s8,4,9.5,5s1.5,1,1.5,1l2-1.5c0,0,2-3.262,0-5.631S454.817,319,454.817,319s0.659-1,0-3.5s-3.659,0-0.659-2.5
	s1.5-3.5,6-3s4.5,0.5,4.5,0.5s3.5,2,3,5s0.598,15.5,0.049,20.5s9.951,68,13.451,74.5s20.5,54,23.5,58s21,31.716,21,31.716
	L461.659,498.789z"/>
<path d="M470.659,315.5c0,0,2,36,3.5,41.5s10,39.09,12,48.045s19,52.955,23,56.955s19,34.432,21,38.216s20,3.784,24.5,3.284
	s7.5-2.422,11-4.711s4-3.789,5-6.289s-1.5-4,0-6.5s4.987,0,0.244-6s-31.244-28.5-31.244-34.5s-21-68.5-21-74.5s-13-62.5-11-69.5
	s7.5-44.505,10-47.752s12-15.748,14-15.248s2,2,3,4.5s-1,3,4.5,5s1,0,5.5,2s0.5,4.5,4.5,2s8.5-4,8.5-4s3-1,3,2s-1.5,4.5-1,6
	s0,6.744,2,5.872s-2.5,2.628,2-0.872s3.5-6.005,5-7.252s1-3.248,2-4.748s1-1.5,1-1.5s-1.707-1.5,1.646,2s4.354-0.005,4.854,4.248
	s-1.5,6.497,1.5,8.125s2.5,2.628,6.5,3.128s3-2,4,0.5s0.5,0.5,0,5s3.5,7.5,5,8s2.5,1,7.5-1.5s8.5-5,10-6s4.5-3.5,4.5-3.5
	s-2.5,0,0,2.5s0.5,3,0,7s-2.539,9,1.23,10.5s1.77,4,6.77,1.5s4.5-1.5,6-4.5s2-3,3-6s-1-12.756,0-16.628s-2.922-7.377,0.289-8.125
	s3.211,0.248,6.211,0s3-4.252,5.5,0s2,4.997,3.5,8.125s-0.5,2.128,3,5.628s3-0.5,8,6s4,0.5,5,6.5s2,5,0,10s-3.5-2.5-2,5
	s-2.5,3,1.5,7.5s2,4,6.5,4s-3.5,4,4.5,0s3.5-3.5,8-4s3.5-4.5,4.5-0.5s-1,2.25,0,7.875s-2.922,5.125,0.289,7.625s2.711,3,6.711,3
	s2,5,4,0s0.5,3.5,2-5s2.5-5.5,1.5-8.5s-6.5-6-1-3s8.5,3,12.5,4s5.5,3.75,8,1.875s5.5-2.875,4-5.875s2.5-5-4.5-7s-6.5-3-10.5-4
	s-6.5-3.5-10-4s-7.5-2.5-6.5-4.5s-4,1,1-2s3.5-7,8-4.5s3.5,3.5,6.5,6.5s2.5,4.5,6.5,4.5s6.5-2,7-4.5s1,5,0.5-2.5s-3.5-4-0.5-7.5
	s-1.5-8,3-3.5s3.5,4,7.5,7s-1,3,4,3s3,6,5,0s1-7,0-10.5s7,0.5-1-3.5s-5.5,0.244-10-5.128s-4.5-7.372-7.5-11.372s-9-6.029-7-12.015
	s1-9.985,4.5-10.985s3.5-4,8-3.5s7.5-1.611,12.5-0.056s12.5,3.056,14,2.056s-1-2.5,0-5s5.484-3,0.492-7.5s-11.992-14.5-17.492-18
	s-10-5.5-18.5-5.5s-14,0-18.5,0s-7.5,1.5-7.5-2.5s-4-1.5,0-4s0.5-1,4-2.5s4-7,4-7s-2-4.5,4.5-3.5s0-0.5,6.5,1s9.5,2,11.5,1
	s4-1.5,2.5-4.5s1-0.5-1.5-3s-13-8.5-23.5-7s-10.5,1.525-14.5-0.237s-7-5.263-14-6.763s-12.5-3.5-16.5-3.5s-18-3-23-4s-9,0.5-10-4
	s-2.5-5,0.5-9.5s3-4.5,3-4.5s-1.5,1,5,0s3.5,0,6.5-1s4-6.5,4-6.5s1-0.5-1-3s-8.5-6.5-10-9s-13-12-13-12s-5-3-0.5-3s4-1,7.5,0
	s5-1,6.5-3s-8-13.5-14-18.5s-35.5-19-40-25.5s-29-15-35.5-16s-32.5-18.5-41-20s-61-8-70-8s-49.5,8-62.5,11.5s-86.5,36-100.5,50
	s-18,9-29,23.5s-33,34-37,38.5s-29,24.5-36,29.5s-93,97.495-97.5,100.748s-39.5,20.752-45.5,22.752s-19.5,9.5-21,14s-5.5,9.5-4.5,13
	s2,6.375,2,6.375s0.5-0.375,2.5-2.875s2.5-5.5,4.5-9s-0.5-3.5,3.5-6s12-8,13.5-7.5s14.5-6.5,23.5-8.5s18-7.5,23-11
	s10.5-8.005,15-11.252s35-34.748,40.5-39.248s16.5-24,23-31.5s16-17.5,22.5-22s61.5-53.5,67-57.5s36-32,42-35.5s18-20.5,26.5-23
	s22-9.5,27-10.5s70-22,79.5-23.5s26.817-3.5,39.159-2.5s11.841,2,26.341,6s25,6.5,30,8.5s12.5,8,20,9.5s11,4,15.5,6.5
	s22,9.5,24,12.5s14.5,11.5,21.5,15.5s10,5.5,13.5,8s2-1,3.5,2.5s4.5,0.5,1.5,3.5s0.5-1-3,3s-6,4.5-5,6.5s1,2.5,4,5s2,0.5,6,4.5
	s13,6,12.5,10.5s5-1.5-0.5,4.5s-8,8-9.5,11s-3.5,2.5-3.5,6.5s-0.5,3.5,1,7s-2,3,5,6.5s13,4,19.5,5.5s9,1.5,16.5,3.5
	s10.5,2.5,14.5,4.5s6,3,10,6.5s6.5,0,10,2.5s4,3.5,2.5,7.5s-2.5,3-3.5,6.5s-2,2.5-1.5,6.5s-3.5,4.5,2.5,7.5s8,3.5,12.5,4.5
	s4.5-0.5,10,0.5s5.5-1,12.5,1.5s9.5-1,10.5,4s3,2,1,5s1,1-4.5,3.5s-9,2.5-11.5,4s-0.5-1.5-4,3.5s-4,6.5-3.5,14s2,12.495,6,16.748
	s6.5,5.497,6,8.125s2.5-1.872-0.5,2.628s-1.5,0-3,4.5s2.5,7.5-5,4s-4.5-6-10-4s-7.5,0-10,4.5s-3.5,3-4,8s-0.5-1.5-0.5,5s5,6,0,6.5
	s-5.5-0.5-8.5-2.5s-3-4.5-4-6s-1,0-1.5-6s1.5-4-2-9.5s-7.5-15.269-11-17.134s-10.5-4.866-17-6.366s-19.5,1.231-20.5,6.366
	s2,16.634-1.5,12.634s2.5,0-3.5-4s-6.5-5-9-2.5s-3.5,4.244-6,3.872s-4,1.628-2.5-4.372s2-7.5-1.5-8.5s-3-4.5-6-2s-2,4.731-4.5,4.866
	s0.5,5.134-2.5,0.134s-9.5-15.5-15-18s-9-5.5-15-6.5s-8-2-11.5-4s-5.5-5.5-7-6.5s-3.5-1-3-4.5s4-8,4-8l2.5-2c0,0-6-9-7-11
	s-3-6-6.5-5s-36,27.5-43,43s-18.5,67-17.5,76.5s4.5,0.75,8,3.875s4.5,5.625,2.5,5.625S470.659,315.5,470.659,315.5z"/>
<path d="M417.159,307v-27.5c0,0-0.5-5-5.5-3.5s-8,4-8.5,2.5s2.5-2.5,0-5s5.5-4-2.5-2.5s-7.5,4-14.5,3.5s-26-3.197-29.5-4.099
	s-5-2.901-5.5-5.401s-1-2.5,0-5.5s-2.154-8.505-0.577-5.752s5.077,3.252,6.077,2.752s3.5,3.495,2-2.752s-1.5-6.248-2-8.248
	s-0.5-3.5,4-4s-1,0,4.5-0.5s10,3.5,5.5-0.5s-6-3-7.5-3.5s-6.5-2-6.5-2s7.5-38,13-44s21-39.5,28-43.5s15.5-14.5,15.5-14.5
	s-1.5,1-0.5,5s-1.5,2,1,4s3,4,6.5,0s6.5-6.5,6.5-9s-2.5-10.5,0-5s2,5.5,4.5,10.5s1.5,2.5,6,7.5s1,7,4.5,5s5.5-4,4.5-7.5
	s-9.5-10.5-9.5-12.5s-1-10.5-1-10.5s2-3.5,3.5-4.5s5.515,1.5,7.257,0s8.401,2.5,8.401,2.5s4.841-0.173,4.841-2.836
	s-10.5-8.164,0-10.664s14.5-2.5,14.5-2.5s1.5-4,5,0s5,4,6,6.5s0,2.5,0,5s1,6.5,3,8s2,1.5,2,1.5s3,0.5,0,4.5s-38.5,35.5-44,44.5
	s-26,47-28.5,56.5s-5.5,28.5-6,35.5s2,5.5,3.5,3.5s0.5-14,3.5-21.5s14.5-43.5,28-63s24.5-34,33.5-39s9-9,13.5-8s10.5,2,10.5,2
	s1,1,0,2s-0.5,0.5-4.5,1.5s-4.5-1-7.5,1s-1.5-0.5-3,2s-7.5-1.5-1.5,2.5s7,3,12.5,5s8.5,1.5,10.5,3.5s1-2.5,2,2s3.5,1.5,1,4.5
	s4.5-0.5-2.5,3s-8.5,2.5-9.5,4.5s-0.5-2.5-1,2s-12,3.5-0.5,4.5s6,1.5,11.5,1s3-2,8-1.5s9.5,0,11,2s-1,0.5-5,3s-41,27-48.5,52.5
	s-13.5,65-13,73.5s-1.5,2.5-3,0s4-1-1.5-2.5s-14.587,0-19.043,2s0.543,1.75-6.457,3.375S417.159,307,417.159,307z"/>
<path d="M409.188,127l-13.03-11.5c0,0,2.5,1.5,0,5.75s2,7.25-2.5,4.25s-4-1.5-8-4.25s-8-5.25-10.5-5.75s-7-2.5-9.5,0s-3-2.5-2.5,2.5
	s1.5,5,3.5,9s1.5,4,4.5,6.5s-1.5-2,3,2.5s3.5-0.5,4.5,4.5s-1.5,7.5-1.5,7.5s0.5,2.5-2.5,0s-3-5-6-6.5s-5.849-4.5-5.674,0
	s-1.326-1.5,0.174,4.5s2,7,4,10.5s4.5-2,2,3.5s1.5,7.5-2.5,5.5s-8-2-10-5s-4.055-4-6.527-6s0.527-2.5-4.973-3s-6.5-3-8.5,0
	s-1.5-4.5-2,3s0,9.516,0,11.758s3.5,0.742,0,2.242s-1.5,8.5-3.5,1.5s-2.971-8-3.735-11.5s4.735-0.5-0.765-3.5s-4-5-10-3.5
	s-7.5,0-8.5,3s0.5,1.5,0,6s-0.204,6-0.352,9s5.648,7.5,0,5.5s-4.648-7-9.648-9.5s-8-7.5-11.5-4s-5,2-5,7.5s-2.5-0.5,0,11
	s5.5,26,13,32s8.5,6.5,18.5,9.5s15.5,2.5,19,3s3-6.5,3.5,0.5s-0.5,3,0.5,7s-3,3,1,4s4.419,2,7.709,0s3.291-2,3.291-2s10-43,16-49
	s24.5-37.5,28.5-41s16.53-15,16.53-15V127z"/>
</svg>
